<svg id="edlpLtWmfjc1" xmlns="http://www.w3.org/2000/svg" xmlns:xlink="http://www.w3.org/1999/xlink" viewBox="0 0 1709.41 1539.504" shape-rendering="geometricPrecision" text-rendering="geometricPrecision" width="1709.41" height="1539.504"><style><![CDATA[#edlpLtWmfjc5_to {animation: edlpLtWmfjc5_to__to 8000ms linear infinite normal forwards}@keyframes edlpLtWmfjc5_to__to { 0% {offset-distance: 0%} 31.25% {offset-distance: 24.288525%} 62.5% {offset-distance: 49.531943%} 93.75% {offset-distance: 88.747397%} 100% {offset-distance: 100%}} #edlpLtWmfjc6_to {animation: edlpLtWmfjc6_to__to 8000ms linear infinite normal forwards}@keyframes edlpLtWmfjc6_to__to { 0% {offset-distance: 0%} 31.25% {offset-distance: 36.931941%} 62.5% {offset-distance: 61.479603%} 93.75% {offset-distance: 93.774101%} 100% {offset-distance: 100%}} #edlpLtWmfjc7_to {animation: edlpLtWmfjc7_to__to 8000ms linear infinite normal forwards}@keyframes edlpLtWmfjc7_to__to { 0% {offset-distance: 0%} 28.75% {offset-distance: 31.945378%} 52.875% {offset-distance: 58.600281%} 83.75% {offset-distance: 89.066432%} 100% {offset-distance: 100%}} #edlpLtWmfjc8_to {animation: edlpLtWmfjc8_to__to 8000ms linear infinite normal forwards}@keyframes edlpLtWmfjc8_to__to { 0% {offset-distance: 0%} 31.25% {offset-distance: 27.969001%} 62.5% {offset-distance: 59.113572%} 93.75% {offset-distance: 93.184355%} 100% {offset-distance: 100%}} #edlpLtWmfjc8_ts {animation: edlpLtWmfjc8_ts__ts 8000ms linear infinite normal forwards}@keyframes edlpLtWmfjc8_ts__ts { 0% {transform: scale(1.397101,1.657742)} 31.25% {transform: scale(1.235997,1.00104)} 62.5% {transform: scale(2.705056,2.669518)} 93.75% {transform: scale(3.448047,3.196203)} 100% {transform: scale(3.197303,2.99047)}} #edlpLtWmfjc9_to {animation: edlpLtWmfjc9_to__to 8000ms linear infinite normal forwards}@keyframes edlpLtWmfjc9_to__to { 0% {offset-distance: 0%} 25% {offset-distance: 28.410434%} 50% {offset-distance: 54.907775%} 75% {offset-distance: 73.529408%} 100% {offset-distance: 100%}} #edlpLtWmfjc10_to {animation: edlpLtWmfjc10_to__to 8000ms linear infinite normal forwards}@keyframes edlpLtWmfjc10_to__to { 0% {offset-distance: 0%} 27.5% {offset-distance: 30.896632%} 56.25% {offset-distance: 65.379958%} 85% {offset-distance: 86.13452%} 100% {offset-distance: 100%}} #edlpLtWmfjc10_ts {animation: edlpLtWmfjc10_ts__ts 8000ms linear infinite normal forwards}@keyframes edlpLtWmfjc10_ts__ts { 0% {transform: scale(2.36137,2.408898)} 27.5% {transform: scale(1.971713,1.910978)} 56.25% {transform: scale(1.10132,0.963598)} 85% {transform: scale(1.472047,1.527892)} 100% {transform: scale(1.789454,1.891008)}}]]></style><g id="edlpLtWmfjc2" transform="matrix(-0.966 0.259 -0.259 -0.966 1891.1 1119.96)" opacity="0.5"><path id="edlpLtWmfjc3" d="M628.5,1C607.07281,1.001204,585.659302,2.082577,564.341,4.24C543.428493,6.366709,522.635736,9.540358,502.041,13.749C481.825,17.886,461.593,23.088,441.906,29.211C422.439,35.266,403.042,42.365,384.255,50.311C365.635,58.185,347.18,67.075,329.4,76.735C311.74,86.327,294.333,96.9,277.66,108.167C261.067,119.377,244.814,131.531,229.353,144.291C213.93,157.019,198.937,170.646,184.791,184.791C170.645,198.936,157.019,213.93,144.291,229.353C131.531,244.814,119.378,261.067,108.167,277.66C96.9,294.333,86.327,311.74,76.735,329.4C67.075,347.183,58.185,365.638,50.311,384.252C42.364,403.04,35.265,422.436,29.211,441.903C23.088,461.59,17.885,481.823,13.749,502.038C9.540358,522.632736,6.366709,543.425493,4.24,564.338C-0.079682,607.001938,-0.079682,649.993062,4.24,692.657C6.366703,713.569508,9.540352,734.362265,13.749,754.957C17.886,775.173,23.088,795.405,29.211,815.093C35.266,834.56,42.365,853.957,50.311,872.744C58.184,891.358,67.074,909.813,76.735,927.596C86.327,945.253,96.902,962.66,108.166,979.333C119.376,995.926,131.53,1012.179,144.29,1027.64C157.018,1043.063,170.645,1058.056,184.79,1072.202C198.935,1086.348,213.929,1099.974,229.352,1112.702C244.813,1125.462,261.066,1137.615,277.659,1148.826C294.333,1160.091,311.74,1170.666,329.396,1180.257C347.179,1189.917,365.634,1198.807,384.248,1206.681C403.036,1214.628,422.432,1221.727,441.899,1227.781C461.586,1233.904,481.819,1239.107,502.034,1243.243C522.628736,1247.451642,543.421493,1250.625291,564.334,1252.752C606.997938,1257.071682,649.989062,1257.071682,692.653,1252.752C713.565508,1250.625297,734.358265,1247.451648,754.953,1243.243C775.169,1239.106,795.401,1233.904,815.089,1227.781C834.556,1221.726,853.953,1214.627,872.74,1206.681C891.354,1198.808,909.809,1189.918,927.592,1180.257C945.249,1170.665,962.656,1160.09,979.329,1148.826C995.922,1137.616,1012.175,1125.462,1027.636,1112.702C1043.059,1099.974,1058.052,1086.347,1072.198,1072.202C1086.344,1058.057,1099.97,1043.064,1112.698,1027.64C1125.458,1012.179,1137.611,995.926,1148.822,979.333C1160.087,962.659,1170.662,945.252,1180.253,927.596C1189.913,909.813,1198.803,891.358,1206.677,872.744C1214.624,853.956,1221.723,834.56,1227.777,815.093C1233.9,795.406,1239.103,775.173,1243.239,754.957C1247.447648,734.362265,1250.621297,713.569508,1252.748,692.657C1257.067682,649.993062,1257.067682,607.001938,1252.748,564.338C1250.621291,543.425493,1247.447642,522.632736,1243.239,502.038C1239.102,481.822,1233.9,461.59,1227.777,441.903C1221.722,422.436,1214.623,403.039,1206.677,384.252C1198.804,365.638,1189.914,347.183,1180.253,329.4C1170.661,311.743,1160.086,294.336,1148.822,277.663C1137.612,261.07,1125.458,244.817,1112.698,229.356C1099.97,213.933,1086.343,198.94,1072.198,184.794C1058.053,170.648,1043.06,157.022,1027.636,144.294C1012.175,131.534,995.922,119.381,979.329,108.17C962.667,96.9,945.26,86.327,927.6,76.735C909.817,67.075,891.362,58.185,872.748,50.311C853.96,42.364,834.564,35.265,815.097,29.211C795.41,23.088,775.177,17.885,754.961,13.749C734.366265,9.540352,713.573508,6.366703,692.661,4.24C671.342034,2.082509,649.927857,1.001137,628.5,1M628.5,0C975.611,0,1257,281.389,1257,628.5C1257,975.611,975.611,1257,628.5,1257C281.389,1257,0,975.611,0,628.5C0,281.389,281.389,0,628.5,0Z" transform="matrix(1 0 0 1 364 0)" fill="rgb(248,240,227)" stroke="none" stroke-width="1"/><path id="edlpLtWmfjc4" d="M627,1C584.48,1,541.989,2.438,500.7,5.274C460.472,8.038,420.9,12.162,383.083,17.532C345.958,22.804,310.152,29.332,276.659,36.925C245.349691,43.930967,214.410933,52.500703,183.959,62.602C157.804968,71.223563,132.267689,81.614213,107.524,93.702C84.941,104.924,65.551,116.917,49.892,129.346C42.424922,135.218399,35.414136,141.648853,28.92,148.582C23.1593,154.729703,18.024668,161.435408,13.592,168.6C9.598335,175.065386,6.439856,182.010681,4.192,189.27C-0.067168,203.10495,-0.067168,217.90105,4.192,231.736C6.439886,238.995308,9.598364,245.940599,13.592,252.406C18.025596,259.569238,23.160888,266.273591,28.922,272.42C35.416092,279.353191,42.426882,285.783648,49.894,291.656C65.553,304.086,84.943,316.078,107.526,327.3C132.269654,339.387866,157.806938,349.778519,183.961,358.4C214.412975,368.501158,245.351726,377.070892,276.661,384.077C310.154,391.677,345.961,398.198,383.085,403.47C420.9,408.84,460.474,412.964,500.707,415.728C541.989,418.562,584.48,420,627,420C669.52,420,712.01,418.562,753.293,415.726C793.526,412.962,833.1,408.838,870.915,403.468C908.04,398.196,943.846,391.668,977.339,384.075C1008.648274,377.068892,1039.587025,368.499158,1070.039,358.398C1096.193062,349.776519,1121.730346,339.385866,1146.474,327.298C1169.057,316.076,1188.447,304.083,1204.106,291.654C1211.573118,285.781648,1218.583908,279.351191,1225.078,272.418C1230.836542,266.26996,1235.969151,259.564271,1240.4,252.4C1244.393636,245.934599,1247.552114,238.989308,1249.8,231.73C1254.059168,217.89505,1254.059168,203.09895,1249.8,189.264C1247.552144,182.004681,1244.393665,175.059386,1240.4,168.594C1235.96648,161.430709,1230.831183,154.726349,1225.07,148.58C1218.575864,141.646853,1211.565078,135.216399,1204.098,129.344C1188.439,116.914,1169.049,104.922,1146.466,93.7C1121.722311,81.612213,1096.185032,71.221563,1070.031,62.6C1039.579067,52.498703,1008.640309,43.928967,977.331,36.923C943.838,29.323,908.031,22.802,870.907,17.53C833.1,12.162,793.524,8.038,753.291,5.274C712.008,2.438,669.516,1,627,1M627,0C973.281,0,1254,94.244,1254,210.5C1254,326.756,973.28,421,627,421C280.72,421,0,326.756,0,210.5C0,94.244,280.716,0,627,0Z" transform="matrix(0.927184 -0.374607 0.374607 0.927184 318.417 632.508)" fill="rgb(248,240,227)" stroke="none" stroke-width="1"/><g id="edlpLtWmfjc5_to" style="offset-path:path('M205.697123,911.494512C307.761948,1303.784808,739.38408,1478.839473,1000.294417,1468.635864C1563.185125,1460.930332,1722.844907,1089.829968,1793.48652,863.285879C1847.435098,510.1912,1906.747681,-150.480321,864.239076,-209.607882Q310.897963,-51.888575,571.241585,-89.886274');offset-rotate:0deg"><path id="edlpLtWmfjc5" d="M206.5,1C192.589462,0.996695,178.714007,2.395431,165.084,5.175C138.796666,10.559229,113.826949,21.067482,91.6,36.1C58.562211,58.402887,32.70086,89.807767,17.149,126.51C11.894317,138.941284,7.883419,151.862314,5.175,165.084C-0.391744,192.414418,-0.391744,220.586582,5.175,247.917C10.559379,274.203978,21.067625,299.173339,36.1,321.4C58.403649,354.440017,89.81041,380.302876,126.515,395.855C138.945963,401.10962,151.866654,405.120518,165.088,407.829C192.418418,413.395744,220.590582,413.395744,247.921,407.829C274.206878,402.442901,299.174854,391.933306,321.4,376.9C354.440017,354.596351,380.302876,323.18959,395.855,286.485C401.109626,274.05404,405.120524,261.133347,407.829,247.912C413.395744,220.581582,413.395744,192.409418,407.829,165.079C402.442926,138.793114,391.93333,113.825134,376.9,91.6C354.597113,58.562211,323.192233,32.70086,286.49,17.149C274.058718,11.894311,261.137688,7.883412,247.916,5.175C234.285993,2.395431,220.410538,0.996695,206.5,1M206.5,0C320.547,0,413,92.453,413,206.5C413,320.547,320.547,413,206.5,413C92.453,413,0,320.547,0,206.5C0,92.453,92.453,0,206.5,0Z" transform="translate(-205.697123,-209.494512)" fill="rgb(248,240,227)" stroke="none" stroke-width="1"/></g><g id="edlpLtWmfjc6_to" style="offset-path:path('M1352.479371,1136.963897C950.193794,1395.199021,476.570359,1187.946885,383.331464,768.277081C313.446088,389.223838,517.272538,214.054036,697.421652,72.77871C1137.752881,-109.208658,1439.078239,105.321727,1583.651407,419.940628Q1636.897162,663.085211,1610.763635,564.49234');offset-rotate:0deg"><path id="edlpLtWmfjc6" d="M127,1C118.470823,0.998007,109.963161,1.855674,101.606,3.56C85.48942,6.860479,70.18052,13.302361,56.553,22.518C36.294348,36.193127,20.436229,55.449836,10.9,77.955C7.678442,85.576726,5.219448,93.498702,3.559,101.605C0.145797,118.362632,0.145797,135.636368,3.559,152.394C6.859479,168.51058,13.301361,183.81948,22.517,197.447C36.192395,217.705801,55.449469,233.563935,77.955,243.1C85.576726,246.321558,93.498702,248.780552,101.605,250.441C118.362632,253.854203,135.636368,253.854203,152.394,250.441C168.51058,247.140521,183.81948,240.698639,197.447,231.483C217.70584,217.807648,233.563985,198.550561,243.1,176.045C246.321558,168.423274,248.780552,160.501298,250.441,152.395C253.854203,135.637368,253.854203,118.363632,250.441,101.606C247.140521,85.48942,240.698639,70.18052,231.483,56.553C217.807648,36.29416,198.550561,20.436015,176.045,10.9C168.423274,7.678442,160.501298,5.219448,152.395,3.559C144.037476,1.85495,135.529477,0.997617,127,1M127,0C197.140163,0,254,56.859837,254,127C254,197.140163,197.140163,254,127,254C56.859837,254,0,197.140163,0,127C0,56.859837,56.859837,0,127,0Z" transform="translate(-127,-127)" fill="rgb(248,240,227)" stroke="none" stroke-width="1"/></g><g id="edlpLtWmfjc7_to" style="offset-path:path('M1179.917067,1230.14911C860.709634,1342.410598,485.210681,1139.385835,417.628811,738.788142C484.277415,186.012967,822.505783,128.805849,918.715841,132.063317C1283.378422,58.702799,1583.838622,427.457437,1559.159935,713.876718Q1544.155138,928.262577,1444.529681,1042.441585');offset-rotate:0deg"><path id="edlpLtWmfjc7" d="M51,1C27.217837,1.014532,6.735106,17.774395,2.013245,41.083095C-2.708617,64.391795,9.636509,87.801903,31.538,97.071C56.982311,107.819566,86.322434,95.906311,97.071,70.462C107.819566,45.01769,95.906311,15.677566,70.462,4.929C64.305074,2.323294,57.685601,0.986951,51,1M51,0C79.166522,0,102,22.833478,102,51C102,79.166522,79.166522,102,51,102C22.833478,102,0,79.166522,0,51C0,22.833478,22.833478,0,51,0Z" transform="rotate(-9.019719) translate(-35.462186,-117.810024)" fill="rgb(248,240,227)" stroke="none" stroke-width="1"/></g><g id="edlpLtWmfjc8_to" style="offset-path:path('M987.747171,811.591633C792.042554,881.760336,486.248394,947.507801,401.91649,835.473619C324.595807,700.218582,730.129559,457.307564,877.483341,407.981042C1121.397796,299.03959,1558.95895,215.101453,1558.716842,384.220226Q1580.771101,533.57855,1520.7833,484.135664');offset-rotate:0deg"><g id="edlpLtWmfjc8_ts" transform="scale(1.397101,1.657742)"><path id="edlpLtWmfjc8" d="M21,1C11.487642,1.006916,3.295505,7.710859,1.406843,17.033839C-0.48182,26.356819,4.455314,35.720508,13.215,39.429C23.393056,43.728537,35.129463,38.963056,39.429,28.785C43.728537,18.606944,38.963056,6.870537,28.785,2.571C26.322128,1.528887,23.674268,0.994553,21,1M21,0C32.59798,0,42,9.40202,42,21C42,32.59798,32.59798,42,21,42C9.40202,42,0,32.59798,0,21C0,9.40202,9.40202,0,21,0Z" transform="translate(-15.747171,-19.591633)" fill="rgb(248,240,227)" stroke="none" stroke-width="1"/></g></g><g id="edlpLtWmfjc9_to" style="offset-path:path('M395.057228,94.840629C372.959936,99.26349,367.068218,118.310496,383.606372,133.023812C398.434309,153.607887,413.747813,129.182847,427.144174,129.889305C439.727857,114.031445,442.554116,103.237986,440.199577,99.297801C417.028768,87.442553,405.090467,78.590482,398.433284,94.938656');offset-rotate:0deg"><path id="edlpLtWmfjc9" d="M33.5,1C18.042545,1.011043,4.730361,11.904846,1.661403,27.054582C-1.407556,42.204319,6.615478,57.420104,20.85,63.446C37.356268,70.28573,56.288689,62.522569,63.241412,46.063577C70.194136,29.604584,62.560943,10.61939,46.15,3.554C42.148069,1.860388,37.845539,0.991719,33.5,1M33.5,0C52.001539,0,67,14.998461,67,33.5C67,52.001539,52.001539,67,33.5,67C14.998461,67,0,52.001539,0,33.5C0,14.998461,14.998461,0,33.5,0Z" transform="translate(0,0)" fill="rgb(248,240,227)" stroke="none" stroke-width="1"/></g><g id="edlpLtWmfjc10_to" style="offset-path:path('M1199.036435,299.603273C1647.345962,249.270279,1669.531277,410.23019,1324.671783,647.180117C1077.124557,785.769242,830.336813,916.719776,516.660126,894.618998C411.327629,858.788587,245.442484,837.654216,609.486737,548.400836Q798.949323,419.726762,916.592195,394.775435');offset-rotate:0deg"><g id="edlpLtWmfjc10_ts" transform="scale(2.36137,2.408898)"><path id="edlpLtWmfjc10" d="M55.5,1C44.640331,0.982057,34.025298,4.224291,25.029,10.307C16.266246,16.222142,9.406896,24.551526,5.282,34.286C-1.899205,51.253982,-0.008254,70.703119,10.307,85.97C16.222142,94.732754,24.551526,101.592104,34.286,105.717C51.253982,112.898205,70.703119,111.007254,85.97,100.692C94.732754,94.776858,101.592104,86.447474,105.717,76.713C112.898205,59.745018,111.007254,40.295881,100.692,25.029C94.777126,16.266395,86.448107,9.40706,76.714,5.282C70.002775,2.441942,62.787404,0.985535,55.5,1M55.5,0C86.151804,0,111,24.848196,111,55.5C111,86.151804,86.151804,111,55.5,111C24.848196,111,0,86.151804,0,55.5C0,24.848196,24.848196,0,55.5,0Z" transform="translate(-41.617523,-51.777886)" fill="rgb(248,240,227)" stroke="none" stroke-width="1"/></g></g></g></svg>